<svg width="282" height="50" viewBox="0 0 282 50" fill="none" xmlns="http://www.w3.org/2000/svg">
<path d="M38.4766 46.875C38.1477 46.8763 37.8268 46.7738 37.5596 46.582L25 37.4766L12.4404 46.582C12.1721 46.7767 11.8488 46.8809 11.5174 46.8797C11.1859 46.8785 10.8634 46.7719 10.5965 46.5753C10.3296 46.3788 10.1321 46.1024 10.0326 45.7862C9.93311 45.47 9.93674 45.1304 10.043 44.8164L14.9414 30.3076L2.24611 21.6016C1.97112 21.4132 1.76357 21.1418 1.65379 20.8271C1.54402 20.5124 1.53776 20.1708 1.63594 19.8523C1.73411 19.5337 1.93158 19.2549 2.19949 19.0566C2.46739 18.8583 2.7917 18.7509 3.12501 18.75H18.7871L23.5137 4.2041C23.6155 3.89006 23.8142 3.61634 24.0812 3.42221C24.3482 3.22808 24.6699 3.12351 25 3.12351C25.3301 3.12351 25.6518 3.22808 25.9188 3.42221C26.1859 3.61634 26.3845 3.89006 26.4863 4.2041L31.2129 18.7549H46.875C47.2087 18.7547 47.5338 18.8614 47.8025 19.0594C48.0712 19.2573 48.2694 19.536 48.3682 19.8548C48.467 20.1736 48.4612 20.5156 48.3515 20.8308C48.2418 21.146 48.0341 21.4178 47.7588 21.6064L35.0586 30.3076L39.9541 44.8125C40.0334 45.0473 40.0557 45.2977 40.0192 45.5428C39.9827 45.788 39.8883 46.021 39.744 46.2225C39.5996 46.424 39.4094 46.5882 39.189 46.7017C38.9687 46.8151 38.7244 46.8746 38.4766 46.875Z" fill="white"/>
<path d="M96.4766 46.875C96.1477 46.8763 95.8268 46.7738 95.5596 46.582L83 37.4766L70.4404 46.582C70.1721 46.7767 69.8488 46.8809 69.5174 46.8797C69.1859 46.8785 68.8634 46.7719 68.5965 46.5753C68.3296 46.3788 68.1321 46.1024 68.0326 45.7862C67.9331 45.47 67.9367 45.1304 68.043 44.8164L72.9414 30.3076L60.2461 21.6016C59.9711 21.4132 59.7636 21.1418 59.6538 20.8271C59.544 20.5124 59.5378 20.1708 59.6359 19.8523C59.7341 19.5337 59.9316 19.2549 60.1995 19.0566C60.4674 18.8583 60.7917 18.7509 61.125 18.75H76.7871L81.5137 4.2041C81.6155 3.89006 81.8142 3.61634 82.0812 3.42221C82.3482 3.22808 82.6699 3.12351 83 3.12351C83.3301 3.12351 83.6518 3.22808 83.9188 3.42221C84.1859 3.61634 84.3845 3.89006 84.4863 4.2041L89.2129 18.7549H104.875C105.209 18.7547 105.534 18.8614 105.802 19.0594C106.071 19.2573 106.269 19.536 106.368 19.8548C106.467 20.1736 106.461 20.5156 106.352 20.8308C106.242 21.146 106.034 21.4178 105.759 21.6064L93.0586 30.3076L97.9541 44.8125C98.0334 45.0473 98.0557 45.2977 98.0192 45.5428C97.9827 45.788 97.8883 46.021 97.744 46.2225C97.5996 46.424 97.4094 46.5882 97.189 46.7017C96.9687 46.8151 96.7244 46.8746 96.4766 46.875Z" fill="white"/>
<path d="M270.477 46.875C270.148 46.8763 269.827 46.7738 269.56 46.582L257 37.4766L244.44 46.582C244.172 46.7767 243.849 46.8809 243.517 46.8797C243.186 46.8785 242.863 46.7719 242.596 46.5753C242.33 46.3788 242.132 46.1024 242.033 45.7862C241.933 45.47 241.937 45.1304 242.043 44.8164L246.941 30.3076L234.246 21.6016C233.971 21.4132 233.764 21.1418 233.654 20.8271C233.544 20.5124 233.538 20.1708 233.636 19.8523C233.734 19.5337 233.932 19.2549 234.199 19.0566C234.467 18.8583 234.792 18.7509 235.125 18.75H250.787L255.514 4.2041C255.616 3.89006 255.814 3.61634 256.081 3.42221C256.348 3.22808 256.67 3.12351 257 3.12351C257.33 3.12351 257.652 3.22808 257.919 3.42221C258.186 3.61634 258.385 3.89006 258.486 4.2041L263.213 18.7549H278.875C279.209 18.7547 279.534 18.8614 279.802 19.0594C280.071 19.2573 280.269 19.536 280.368 19.8548C280.467 20.1736 280.461 20.5156 280.352 20.8308C280.242 21.146 280.034 21.4178 279.759 21.6064L267.059 30.3076L271.954 44.8125C272.033 45.0473 272.056 45.2977 272.019 45.5428C271.983 45.788 271.888 46.021 271.744 46.2225C271.6 46.424 271.409 46.5882 271.189 46.7017C270.969 46.8151 270.724 46.8746 270.477 46.875Z" fill="#9C2759"/>
<path d="M212.477 46.875C212.148 46.8763 211.827 46.7738 211.56 46.582L199 37.4766L186.44 46.582C186.172 46.7767 185.849 46.8809 185.517 46.8797C185.186 46.8785 184.863 46.7719 184.596 46.5753C184.33 46.3788 184.132 46.1024 184.033 45.7862C183.933 45.47 183.937 45.1304 184.043 44.8164L188.941 30.3076L176.246 21.6016C175.971 21.4132 175.764 21.1418 175.654 20.8271C175.544 20.5124 175.538 20.1708 175.636 19.8523C175.734 19.5337 175.932 19.2549 176.199 19.0566C176.467 18.8583 176.792 18.7509 177.125 18.75H192.787L197.514 4.2041C197.616 3.89006 197.814 3.61634 198.081 3.42221C198.348 3.22808 198.67 3.12351 199 3.12351C199.33 3.12351 199.652 3.22808 199.919 3.42221C200.186 3.61634 200.385 3.89006 200.486 4.2041L205.213 18.7549H220.875C221.209 18.7547 221.534 18.8614 221.802 19.0594C222.071 19.2573 222.269 19.536 222.368 19.8548C222.467 20.1736 222.461 20.5156 222.352 20.8308C222.242 21.146 222.034 21.4178 221.759 21.6064L209.059 30.3076L213.954 44.8125C214.033 45.0473 214.056 45.2977 214.019 45.5428C213.983 45.788 213.888 46.021 213.744 46.2225C213.6 46.424 213.409 46.5882 213.189 46.7017C212.969 46.8151 212.724 46.8746 212.477 46.875Z" fill="white"/>
<path d="M154.477 46.875C154.148 46.8763 153.827 46.7738 153.56 46.582L141 37.4766L128.44 46.582C128.172 46.7767 127.849 46.8809 127.517 46.8797C127.186 46.8785 126.863 46.7719 126.596 46.5753C126.33 46.3788 126.132 46.1024 126.033 45.7862C125.933 45.47 125.937 45.1304 126.043 44.8164L130.941 30.3076L118.246 21.6016C117.971 21.4132 117.764 21.1418 117.654 20.8271C117.544 20.5124 117.538 20.1708 117.636 19.8523C117.734 19.5337 117.932 19.2549 118.199 19.0566C118.467 18.8583 118.792 18.7509 119.125 18.75H134.787L139.514 4.2041C139.616 3.89006 139.814 3.61634 140.081 3.42221C140.348 3.22808 140.67 3.12351 141 3.12351C141.33 3.12351 141.652 3.22808 141.919 3.42221C142.186 3.61634 142.385 3.89006 142.486 4.2041L147.213 18.7549H162.875C163.209 18.7547 163.534 18.8614 163.802 19.0594C164.071 19.2573 164.269 19.536 164.368 19.8548C164.467 20.1736 164.461 20.5156 164.352 20.8308C164.242 21.146 164.034 21.4178 163.759 21.6064L151.059 30.3076L155.954 44.8125C156.033 45.0473 156.056 45.2977 156.019 45.5428C155.983 45.788 155.888 46.021 155.744 46.2225C155.6 46.424 155.409 46.5882 155.189 46.7017C154.969 46.8151 154.724 46.8746 154.477 46.875Z" fill="white"/>
</svg>

